<?xml version="1.0" standalone="no"?>
<!DOCTYPE svg PUBLIC "-//W3C//DTD SVG 20010904//EN"
 "http://www.w3.org/TR/2001/REC-SVG-20010904/DTD/svg10.dtd">
<svg version="1.0" xmlns="http://www.w3.org/2000/svg"
 width="1500.000000pt" height="1500.000000pt" viewBox="0 0 1500.000000 1500.000000"
 preserveAspectRatio="xMidYMid meet">
<metadata>
Created by potrace 1.16, written by Peter Selinger 2001-2019
</metadata>
<g transform="translate(0.000000,1500.000000) scale(0.100000,-0.100000)"
fill="#000000" stroke="none">
<path d="M6783 13206 c-17 -8 -34 -23 -36 -33 -3 -10 -11 -38 -17 -63 -21 -81
-67 -110 -177 -110 -198 0 -264 -47 -219 -155 21 -50 81 -77 184 -83 45 -2 82
-6 82 -8 0 -2 -61 -188 -136 -414 -74 -226 -138 -422 -140 -437 -3 -14 -11
-40 -18 -57 -16 -38 -64 -56 -145 -56 -98 0 -151 -44 -121 -99 14 -28 88 -81
111 -81 10 0 20 -4 23 -9 7 -10 -103 -339 -166 -501 -25 -63 -60 -162 -79
-220 -18 -58 -47 -127 -63 -155 -85 -139 -16 -308 165 -405 86 -46 191 -53
289 -20 146 48 337 184 557 394 99 94 143 157 143 203 0 47 -26 44 -140 -20
-52 -29 -191 -106 -309 -172 -186 -103 -359 -184 -397 -185 -7 0 -14 17 -17
38 -4 29 13 86 80 272 89 247 228 661 258 768 23 79 40 91 147 102 46 4 100
15 120 24 21 9 97 26 170 37 81 13 153 30 183 44 28 13 76 27 107 30 63 7 108
35 108 66 0 18 -5 19 -47 14 -218 -25 -509 -54 -677 -68 -10 -1 -21 5 -24 13
-3 8 -1 12 3 8 5 -5 54 119 110 275 56 155 127 347 157 427 31 80 63 169 72
198 10 30 26 57 38 63 29 15 161 45 233 53 33 3 94 17 135 31 41 13 147 38
235 56 166 33 228 51 255 73 8 7 33 14 55 15 49 2 149 28 186 46 49 26 49 82
0 71 -14 -3 -87 -11 -161 -16 -74 -6 -187 -17 -251 -25 -270 -35 -604 -65
-608 -53 -9 26 -75 88 -114 107 -59 28 -106 33 -144 17z"/>
<path d="M1635 13153 c-29 -7 -45 -23 -45 -44 0 -10 -14 -34 -31 -54 -36 -40
-82 -56 -234 -80 -313 -48 -325 -53 -325 -123 0 -102 204 -135 377 -61 25 11
47 18 49 16 2 -2 -25 -66 -60 -143 -277 -603 -389 -862 -446 -1029 -26 -77
-68 -188 -93 -246 -71 -161 -145 -369 -158 -443 -10 -51 -10 -77 -1 -117 7
-28 12 -54 12 -58 0 -11 -74 -26 -265 -56 -177 -27 -208 -41 -213 -93 -4 -39
20 -76 63 -96 61 -29 243 -13 324 29 16 8 83 23 151 35 196 33 482 99 525 120
22 10 67 22 100 25 80 9 125 30 125 61 0 27 -17 41 -32 26 -7 -7 -45 -9 -107
-5 -54 3 -170 0 -260 -6 -90 -7 -165 -11 -167 -8 -4 4 99 314 141 422 15 39
43 120 62 180 39 123 106 286 195 480 33 72 78 177 101 235 22 58 106 235 186
394 84 167 147 306 151 329 l5 40 107 18 c58 10 133 28 165 39 32 12 92 27
133 35 92 16 108 22 120 45 16 31 -10 67 -32 44 -3 -3 -95 -6 -203 -8 l-197
-2 -41 33 c-65 55 -130 78 -182 66z"/>
<path d="M8908 13057 c-107 -40 -201 -121 -287 -246 -33 -49 -61 -92 -61 -95
0 -3 -31 -70 -69 -149 -124 -256 -252 -579 -322 -812 -18 -60 -34 -111 -35
-113 -1 -1 -37 34 -80 78 -173 178 -283 183 -444 20 -104 -105 -155 -197 -234
-423 -91 -262 -104 -375 -59 -511 19 -59 84 -128 138 -146 108 -35 219 24 466
250 l86 79 -1 -182 c-1 -146 2 -193 16 -238 34 -108 114 -189 197 -197 126
-12 239 99 521 513 113 166 183 257 284 374 l38 45 -7 -32 c-14 -67 -21 -187
-13 -249 15 -131 83 -191 177 -158 23 8 47 12 54 10 38 -15 226 157 376 343
178 222 166 212 129 107 -23 -69 -31 -109 -32 -170 -1 -97 20 -145 83 -190 37
-26 51 -30 109 -30 98 0 168 41 302 175 l106 105 -1 -131 c0 -130 0 -131 35
-199 45 -88 73 -109 142 -106 103 4 115 7 158 41 66 53 217 227 267 310 98
161 178 274 181 254 1 -10 -11 -71 -28 -134 -73 -272 -37 -507 91 -600 115
-83 230 -36 382 154 114 143 201 281 312 496 l97 186 56 -19 c42 -14 74 -18
123 -15 l66 5 -84 -179 c-45 -98 -88 -198 -94 -223 -6 -25 -15 -45 -19 -45
-10 0 -35 -63 -55 -140 -48 -186 15 -370 141 -408 60 -18 76 -15 121 17 23 16
43 28 45 26 9 -9 218 157 273 217 32 35 104 124 159 198 l101 136 1 -106 c0
-116 19 -178 72 -234 59 -63 159 -83 237 -47 55 25 181 121 300 228 l101 90
-1 -191 c0 -176 2 -195 23 -247 27 -68 93 -146 139 -165 139 -58 262 48 551
473 152 224 264 364 413 518 64 66 121 130 128 142 15 30 14 68 -4 83 -49 41
-225 -151 -553 -607 -336 -468 -386 -509 -412 -347 -12 70 -1 199 35 434 50
318 58 338 220 545 65 83 120 157 123 165 10 24 133 190 142 190 13 0 130 162
221 305 165 261 223 401 223 540 1 131 -46 200 -158 235 -62 20 -171 8 -239
-25 -77 -38 -172 -126 -233 -217 -76 -112 -202 -376 -324 -683 -45 -113 -150
-418 -150 -436 0 -4 -4 -19 -10 -33 -9 -25 -10 -25 -93 59 -103 104 -172 141
-249 132 -114 -14 -255 -153 -356 -352 -16 -33 -101 -155 -189 -271 -87 -115
-189 -252 -228 -304 -87 -117 -202 -232 -260 -260 -77 -37 -84 -7 -29 133 19
51 54 141 76 201 22 59 74 181 115 270 91 194 96 221 57 264 -34 37 -114 61
-184 57 -58 -4 -170 12 -187 26 -23 19 -14 61 27 137 40 71 54 88 45 55 -3
-10 4 0 15 22 34 70 22 95 -57 115 -75 19 -124 3 -189 -64 -82 -84 -103 -175
-63 -271 l21 -51 -111 -173 c-151 -235 -263 -392 -340 -474 -76 -81 -93 -92
-121 -77 -17 9 -20 21 -20 80 0 39 12 129 26 201 14 72 23 138 20 145 -8 22
40 158 106 297 50 106 59 134 55 163 -11 69 -85 134 -152 134 -43 0 -93 -29
-161 -92 l-62 -58 -6 32 c-8 43 -59 150 -92 193 -61 80 -181 98 -265 39 -23
-16 -65 -44 -95 -61 -29 -18 -69 -52 -89 -75 -48 -56 -121 -181 -170 -292 -34
-74 -56 -105 -138 -195 -105 -114 -234 -231 -255 -231 -7 0 -16 8 -19 17 -11
28 26 181 68 287 22 55 38 108 35 119 -2 10 9 46 25 78 71 139 44 209 -82 209
-97 0 -134 -33 -271 -240 -99 -148 -231 -313 -333 -417 -64 -64 -89 -83 -119
-89 -32 -5 -42 -3 -53 11 -19 27 -16 53 13 146 19 61 28 79 36 68 7 -11 9 -8
5 9 -3 12 -2 20 2 17 8 -4 101 220 101 244 0 21 81 171 90 166 13 -8 80 130
86 178 6 40 4 46 -22 64 -61 43 -155 48 -211 11 -39 -26 -108 -125 -146 -211
-15 -32 -40 -76 -57 -97 -16 -20 -43 -66 -59 -101 -17 -36 -58 -97 -96 -139
-79 -90 -224 -279 -400 -524 -189 -263 -277 -366 -314 -366 -16 0 -26 10 -38
38 -42 101 39 723 111 845 13 23 76 109 140 191 64 81 116 152 116 158 0 13
115 163 163 213 45 46 221 307 296 440 206 363 162 613 -109 622 -45 2 -90 -2
-112 -10z m178 -168 c45 -49 14 -231 -67 -390 -74 -148 -259 -437 -403 -629
-109 -146 -101 -135 -86 -125 8 5 -8 -19 -35 -54 -58 -73 -67 -81 -54 -44 5
16 43 129 83 253 127 388 228 633 341 825 98 167 170 220 221 164z m5520 -4
c40 -61 10 -235 -67 -388 -67 -132 -261 -434 -395 -614 -45 -61 -80 -114 -77
-117 4 -3 1 -6 -5 -6 -7 0 -11 -4 -9 -8 1 -4 -22 -38 -51 -75 -51 -66 -72 -85
-53 -49 5 10 42 117 81 238 141 430 252 695 373 890 31 51 73 106 92 123 45
39 88 42 111 6z m-3574 -1055 c9 -19 19 -48 22 -65 6 -28 5 -28 -8 5 -23 56
-18 11 9 -81 13 -46 25 -94 25 -105 0 -46 -340 -514 -412 -567 -16 -12 -33
-17 -44 -13 -14 6 -16 16 -9 79 4 39 7 88 6 107 0 26 3 31 10 20 8 -12 9 -10
4 7 -14 49 132 442 158 426 6 -4 8 0 4 10 -3 10 -2 17 4 17 6 0 7 5 4 10 -3 6
-1 10 5 10 6 0 8 5 5 10 -3 6 -1 10 5 10 6 0 9 4 6 9 -8 12 42 79 88 119 51
45 94 42 118 -8z m-3066 -161 c35 -21 110 -125 120 -165 7 -26 5 -39 -20 -188
-20 -119 -32 -142 -110 -226 l-60 -65 68 65 c38 36 64 56 58 44 -13 -25 -117
-115 -125 -108 -3 3 -16 -9 -29 -26 -39 -54 -215 -191 -253 -197 -49 -8 -67
24 -61 108 12 178 209 655 307 744 45 41 59 43 105 14z m5530 -11 c21 -18 55
-60 77 -93 43 -67 43 -64 12 -244 -21 -122 -31 -144 -101 -221 l-58 -65 63 60
c35 33 59 51 53 39 -13 -26 -100 -98 -121 -100 -9 -2 -43 -31 -76 -66 -100
-105 -183 -168 -223 -168 -39 0 -52 31 -48 111 13 232 267 779 362 779 13 0
40 -15 60 -32z"/>
<path d="M1929 12145 c-19 -10 -30 -28 -38 -62 -7 -26 -25 -77 -41 -114 -28
-63 -112 -292 -151 -414 -23 -70 -44 -260 -35 -311 9 -43 79 -119 120 -130 17
-4 36 -2 47 4 10 7 24 9 32 6 8 -3 18 6 26 23 30 68 207 337 260 395 31 34 90
107 129 161 40 53 74 97 76 97 11 0 -34 -99 -56 -123 -26 -28 -79 -148 -97
-222 -12 -50 -31 -219 -31 -281 0 -106 49 -178 166 -245 105 -60 167 -37 307
111 l85 90 4 -107 c4 -95 8 -115 33 -163 31 -61 96 -134 137 -156 86 -45 194
13 311 169 104 138 265 363 297 415 18 29 34 51 36 50 2 -2 -4 -26 -12 -53 -8
-28 -35 -126 -60 -220 -25 -93 -55 -192 -68 -220 -23 -51 -32 -60 -300 -304
-107 -98 -197 -198 -316 -357 -176 -232 -222 -326 -223 -454 -1 -202 168 -385
340 -368 116 11 186 76 294 274 135 246 204 427 345 909 47 160 92 300 100
313 28 43 301 271 592 494 101 77 187 150 192 162 11 29 2 73 -17 80 -18 7
-46 -7 -98 -49 -22 -17 -89 -67 -150 -110 -106 -75 -202 -151 -384 -304 -47
-39 -87 -69 -89 -66 -14 13 86 232 189 415 61 110 65 128 41 183 -43 98 -193
118 -268 35 -34 -37 -374 -545 -389 -581 -30 -72 -241 -287 -281 -287 -41 0
-37 122 7 254 31 93 101 230 170 336 34 52 62 100 63 106 1 5 12 23 25 40 12
16 19 22 15 14 -5 -10 0 -9 14 4 25 21 31 36 7 16 -8 -7 -15 -8 -15 -3 0 12
40 50 47 45 3 -2 8 0 11 4 4 4 1 4 -5 0 -36 -20 -3 24 80 106 68 69 109 101
157 124 64 31 67 31 155 23 85 -8 91 -8 108 12 23 28 22 73 -4 125 -16 34 -32
49 -72 68 -77 37 -130 41 -206 17 -35 -12 -74 -21 -86 -21 -44 0 -171 -98
-284 -218 -114 -122 -240 -270 -242 -284 -1 -4 -2 -13 -3 -18 -1 -12 -71 -94
-131 -154 -22 -22 -107 -98 -190 -168 -146 -125 -223 -176 -245 -163 -14 9 -4
79 26 175 13 41 25 88 28 103 3 16 14 45 26 65 l20 37 -30 -35 c-17 -19 -47
-70 -67 -112 -20 -43 -39 -76 -41 -73 -7 6 132 288 166 337 17 24 58 75 91
113 114 130 139 226 85 324 -57 106 -158 107 -255 4 -71 -74 -403 -503 -379
-488 7 5 -15 -33 -50 -84 -34 -50 -65 -89 -68 -86 -3 2 -11 0 -17 -5 -10 -8
-9 7 1 62 8 40 19 105 23 143 11 83 31 143 70 205 16 25 32 60 36 79 5 21 29
57 66 97 65 70 79 105 58 142 -32 56 -156 82 -220 47z m1318 -1796 c-170 -491
-290 -728 -407 -805 -52 -35 -85 -26 -117 31 -81 145 -11 313 276 665 98 120
314 346 319 332 1 -5 -31 -105 -71 -223z"/>
<path d="M4543 10896 c-117 -38 -212 -149 -213 -248 0 -63 81 -138 148 -138
62 0 231 190 234 263 5 79 -2 107 -28 117 -45 18 -98 20 -141 6z"/>
<path d="M2558 8628 c-21 -16 -166 -307 -249 -500 -33 -79 -115 -278 -181
-443 -65 -165 -131 -326 -145 -357 -27 -60 -33 -65 -128 -87 -58 -14 -85 -35
-85 -67 0 -25 49 -71 93 -87 16 -5 26 -15 24 -21 -3 -7 -46 -138 -95 -292
-203 -626 -206 -646 -108 -752 50 -54 103 -74 151 -56 23 9 52 71 65 142 13
76 73 281 135 462 25 74 57 180 71 235 39 155 73 250 97 272 34 31 76 41 288
68 107 14 218 32 248 41 29 8 55 13 57 11 3 -2 -5 -25 -16 -51 -11 -26 -46
-120 -79 -209 -33 -89 -97 -257 -144 -372 -92 -229 -213 -587 -223 -658 -10
-69 2 -110 43 -151 40 -40 97 -62 137 -52 43 11 74 67 145 262 38 104 98 263
133 354 36 91 82 217 103 280 37 111 186 483 227 565 45 90 93 116 251 134
101 12 141 27 145 57 3 24 -27 42 -39 23 -5 -9 -39 -10 -124 -6 -64 3 -119 8
-122 11 -12 11 28 98 187 411 93 182 173 351 180 375 7 25 25 70 41 102 38 75
38 120 0 180 -48 75 -133 128 -206 128 -27 0 -38 -5 -45 -22 -5 -13 -76 -176
-159 -363 -144 -329 -239 -554 -295 -700 -14 -39 -39 -86 -54 -105 l-29 -34
-164 -7 c-91 -4 -201 -14 -244 -22 -93 -18 -155 -27 -155 -23 0 2 14 36 31 77
16 41 41 113 54 160 26 91 114 301 214 511 33 70 74 167 91 215 17 49 49 113
70 145 48 67 52 112 16 151 -51 55 -172 93 -208 65z"/>
<path d="M10709 8500 c-101 -17 -212 -96 -301 -214 -123 -163 -366 -716 -478
-1086 -17 -58 -33 -110 -35 -116 -2 -6 -44 29 -93 77 -100 98 -152 128 -226
129 -117 0 -258 -127 -362 -328 -18 -35 -62 -81 -162 -168 -268 -235 -354
-296 -368 -260 -8 20 13 122 40 204 14 39 22 73 19 76 -3 3 5 21 17 41 12 20
20 38 17 41 -7 8 -63 -85 -98 -164 -18 -40 -34 -70 -37 -68 -6 7 101 234 149
317 21 36 72 105 113 153 41 48 84 107 96 130 39 83 17 205 -47 256 -35 28
-104 27 -155 -2 -25 -14 -77 -69 -137 -143 -156 -192 -283 -358 -292 -384 -19
-48 -132 -202 -142 -192 -6 6 -4 48 7 118 27 170 36 203 76 278 20 39 43 87
49 107 7 21 39 67 72 103 35 39 59 74 59 88 0 76 -139 134 -220 92 -31 -16
-50 -43 -50 -69 0 -9 -18 -58 -39 -109 -22 -50 -69 -177 -105 -281 -55 -155
-68 -206 -77 -290 -10 -100 -10 -102 -67 -186 -193 -288 -313 -413 -355 -371
-20 20 -12 155 17 292 15 70 24 133 21 141 -8 20 48 174 100 278 60 120 68
152 48 202 -21 53 -83 98 -135 98 -57 0 -100 -22 -164 -84 -32 -31 -59 -56
-60 -56 -1 0 -12 28 -23 63 -72 216 -221 292 -363 184 -24 -18 -64 -45 -90
-60 -26 -15 -62 -46 -82 -70 -48 -59 -137 -212 -166 -286 -23 -58 -36 -73
-145 -170 -194 -173 -289 -249 -336 -270 l-44 -20 -3 42 c-2 26 9 80 28 141
16 54 30 105 30 114 0 8 10 31 22 51 l21 36 -22 -21 c-12 -11 -42 -58 -66
-105 -71 -134 -52 -81 29 85 52 105 92 172 133 220 152 179 175 228 153 324
-9 43 -22 66 -51 96 -38 37 -41 38 -94 34 -69 -6 -103 -31 -203 -154 -114
-139 -312 -398 -307 -402 9 -9 -116 -182 -127 -176 -8 5 -9 1 -4 -12 6 -15 5
-16 -5 -7 -9 9 -8 30 5 95 9 46 16 98 16 116 0 41 44 176 70 212 10 14 28 50
38 78 12 32 42 76 76 113 45 48 56 67 56 93 0 78 -122 131 -214 92 -29 -12
-36 -23 -54 -77 -11 -35 -34 -98 -51 -139 -74 -179 -152 -417 -164 -500 l-13
-87 -84 -109 c-46 -60 -135 -175 -197 -256 -62 -80 -113 -151 -113 -157 0 -5
-27 -33 -60 -62 -158 -140 -216 -145 -172 -15 49 145 145 386 212 530 85 184
94 223 57 259 -35 35 -116 57 -213 57 -46 0 -95 5 -111 12 -15 6 -35 12 -43
12 -39 2 -8 113 51 186 12 14 17 19 13 11 -4 -9 -3 -12 4 -7 6 4 17 24 23 46
10 33 9 43 -4 63 -17 26 -16 25 -100 33 -49 5 -63 2 -100 -20 -104 -60 -165
-212 -121 -298 15 -28 14 -31 -4 -52 -11 -11 -55 -68 -97 -126 -43 -57 -112
-145 -153 -194 -41 -49 -94 -120 -117 -156 -76 -118 -317 -323 -413 -350 -31
-8 -41 -7 -62 8 -47 35 -48 106 -4 310 13 63 24 129 24 147 0 62 14 82 72 100
125 41 246 122 376 253 161 161 208 340 116 441 -54 61 -121 86 -229 86 -78 0
-97 -4 -147 -28 -178 -87 -363 -366 -442 -663 -34 -131 -76 -380 -76 -452 0
-66 16 -132 32 -132 6 0 9 -3 5 -6 -23 -23 84 -136 173 -183 89 -48 169 -53
242 -18 89 44 189 137 284 264 48 65 113 147 144 183 49 56 252 316 315 403
l21 28 44 -20 c34 -16 66 -21 133 -21 l87 0 -39 -77 c-58 -116 -141 -308 -141
-325 0 -8 -9 -27 -20 -40 -11 -14 -31 -67 -46 -118 -47 -163 -23 -311 63 -392
50 -47 136 -64 178 -34 11 7 38 24 60 36 56 31 176 124 239 184 65 64 149 169
273 345 53 75 98 138 100 140 2 3 16 -7 31 -22 37 -35 71 -46 105 -34 15 5 31
7 34 3 3 -3 25 27 48 67 86 149 177 284 233 347 32 36 90 108 130 162 73 99
108 135 79 82 -8 -16 -21 -44 -27 -61 -7 -18 -17 -33 -22 -33 -15 0 -86 -161
-102 -231 -20 -88 -39 -293 -30 -332 17 -80 75 -145 179 -200 88 -47 136 -33
243 68 39 36 97 100 128 141 31 41 57 74 58 74 1 0 -1 -30 -5 -67 -12 -143 18
-260 87 -329 34 -33 35 -33 117 -31 77 3 87 5 123 34 97 78 232 238 304 359
29 49 76 122 104 163 41 58 52 69 54 52 2 -12 -4 -43 -12 -69 -62 -189 -75
-364 -36 -494 65 -218 231 -275 389 -133 73 66 313 395 334 458 2 7 15 3 35
-12 35 -25 84 -30 106 -12 11 9 15 9 18 -1 2 -6 19 15 38 48 75 132 196 312
244 364 28 30 89 106 135 168 46 61 85 112 87 112 3 0 -2 -12 -9 -27 -8 -16
-17 -40 -21 -55 -3 -15 -17 -38 -31 -50 -28 -26 -76 -127 -99 -208 -17 -63
-36 -221 -36 -307 0 -65 37 -159 67 -170 10 -4 23 -12 28 -19 22 -29 130 -84
162 -84 68 0 165 75 280 215 l40 49 -13 -64 c-16 -78 -18 -181 -3 -249 35
-163 189 -242 326 -167 65 36 216 156 308 247 l70 69 0 -198 c0 -182 2 -201
23 -253 46 -116 144 -190 229 -174 54 10 90 31 151 89 76 72 170 193 312 401
107 158 244 336 341 445 31 35 31 35 25 8 -25 -107 -49 -277 -50 -353 -1 -82
2 -95 29 -149 36 -71 119 -150 195 -185 44 -21 70 -26 131 -26 70 0 80 3 130
36 90 60 168 138 255 256 46 61 112 144 146 185 81 92 353 447 361 470 4 11
-3 28 -18 45 -23 27 -25 27 -51 13 -15 -8 -57 -56 -93 -106 -36 -50 -111 -146
-166 -213 -55 -67 -112 -143 -127 -168 -32 -56 -147 -175 -247 -255 -123 -99
-211 -132 -249 -94 -28 28 -28 142 1 286 14 69 29 145 32 170 11 77 11 77 96
105 116 39 259 142 378 271 157 172 179 363 53 447 -99 65 -238 74 -347 21
-115 -56 -242 -208 -341 -408 -39 -79 -70 -126 -116 -175 -91 -96 -200 -235
-350 -443 -230 -321 -338 -456 -379 -479 -64 -34 -91 83 -65 291 22 184 63
436 82 499 21 76 38 103 173 275 64 82 116 153 116 157 0 12 126 181 156 209
108 100 363 523 410 680 45 149 24 285 -52 342 -57 43 -148 61 -230 48z m130
-176 c29 -37 29 -147 0 -240 -49 -157 -245 -485 -472 -788 -33 -44 -60 -85
-61 -91 -2 -11 -115 -165 -121 -165 -6 0 200 603 245 716 110 279 259 538 330
575 46 25 55 24 79 -7z m-6749 -911 c20 -26 22 -35 15 -117 -7 -87 -8 -92 -53
-150 -25 -34 -73 -87 -107 -119 -62 -60 -192 -153 -201 -144 -6 5 90 235 138
332 51 101 150 225 179 225 4 0 17 -12 29 -27z m7444 14 c23 -17 36 -79 25
-124 -5 -21 -9 -52 -9 -70 0 -61 -181 -255 -307 -329 -25 -14 -46 -24 -48 -22
-5 5 94 237 143 333 40 81 107 175 146 207 25 21 28 21 50 5z m-4309 -123 c19
-8 55 -75 54 -101 0 -16 -1 -16 -9 2 -6 13 -9 15 -9 5 -1 -17 47 -190 48 -176
1 5 4 7 7 4 8 -8 -19 -59 -74 -137 -206 -299 -346 -471 -383 -471 -21 0 -29
52 -17 114 6 33 11 74 10 89 -3 64 139 444 161 430 6 -4 8 0 4 10 -3 10 -2 17
3 17 5 0 7 7 4 15 -4 8 1 17 10 21 9 3 13 10 10 15 -3 5 0 9 7 9 7 0 9 3 6 6
-22 22 94 141 150 154 1 0 9 -3 18 -6z m2503 -204 c33 -20 108 -126 118 -167
7 -24 -18 -176 -42 -263 -9 -30 -16 -65 -16 -77 0 -16 -27 -48 -87 -102 -47
-43 -89 -78 -92 -77 -4 0 -24 -16 -45 -37 -69 -66 -145 -128 -171 -138 -111
-42 -108 124 7 436 46 124 168 362 208 404 44 47 70 51 120 21z"/>
<path d="M7552 7798 c-94 -167 -112 -208 -112 -254 0 -37 14 -43 53 -22 77 40
317 261 317 291 0 10 -7 33 -15 53 -16 39 -77 73 -131 74 -29 0 -35 -7 -112
-142z"/>
<path d="M12675 7600 c-82 -4 -157 -10 -165 -14 -26 -11 -139 -23 -134 -14 13
21 -151 -14 -177 -38 -40 -36 -60 -82 -57 -126 3 -37 8 -45 34 -58 17 -9 43
-26 59 -38 20 -16 41 -22 76 -22 59 0 349 73 403 101 46 24 50 30 -51 -92 -34
-41 -79 -88 -101 -103 -22 -15 -54 -45 -71 -67 -18 -22 -76 -69 -129 -105 -53
-36 -118 -80 -144 -97 -25 -18 -74 -48 -108 -67 -93 -52 -116 -118 -63 -180
24 -29 31 -32 69 -27 28 3 68 22 125 59 117 75 181 101 254 102 73 1 106 -18
135 -79 26 -53 36 -134 21 -162 -15 -30 -107 -81 -511 -288 -517 -264 -722
-390 -806 -495 -71 -89 -142 -263 -100 -247 14 5 16 -2 16 -51 0 -69 21 -108
81 -152 72 -52 155 -72 316 -78 167 -5 255 10 360 63 37 19 71 31 75 29 5 -3
7 -1 6 4 -2 5 33 35 77 67 105 75 189 158 284 280 101 130 167 230 231 346 60
109 60 105 -10 -59 -106 -249 -252 -422 -484 -572 -74 -48 -85 -60 -28 -31
191 99 429 344 577 596 122 207 165 333 161 470 -3 80 -3 83 3 25 l7 -65 2 67
c1 36 5 74 8 83 4 9 72 68 153 132 80 64 181 151 224 193 63 64 77 83 77 109
0 18 -6 34 -14 37 -22 9 -77 -20 -141 -73 -92 -76 -331 -253 -341 -253 -10 1
-49 77 -49 97 0 7 -7 18 -15 25 -12 11 -12 10 0 -7 15 -20 14 -20 -8 -1 -23
20 -30 32 -11 20 27 -16 0 21 -32 45 l-34 25 25 -29 25 -28 -37 27 c-46 34
-144 66 -204 66 -24 0 -44 2 -44 4 0 2 35 37 78 77 42 40 106 103 142 139 36
36 96 88 135 116 91 64 186 154 210 197 23 44 14 82 -25 102 -38 20 -164 25
-355 15z m-134 -1352 c-71 -171 -175 -322 -335 -487 -118 -120 -230 -217 -337
-289 -109 -74 -151 -90 -254 -98 -88 -6 -91 -6 -121 20 -45 37 -58 74 -45 124
36 133 216 279 595 484 55 29 101 61 104 71 2 9 16 20 31 23 14 4 34 14 44 23
21 19 340 209 345 205 2 -1 -10 -35 -27 -76z"/>
</g>
</svg>
