<?xml version="1.0" standalone="no"?>
<!DOCTYPE svg PUBLIC "-//W3C//DTD SVG 20010904//EN"
 "http://www.w3.org/TR/2001/REC-SVG-20010904/DTD/svg10.dtd">
<svg version="1.0" xmlns="http://www.w3.org/2000/svg"
 width="1500.000000pt" height="1500.000000pt" viewBox="0 0 1500.000000 1500.000000"
 preserveAspectRatio="xMidYMid meet">
<metadata>
Created by potrace 1.16, written by Peter Selinger 2001-2019
</metadata>
<g transform="translate(0.000000,1500.000000) scale(0.100000,-0.100000)"
fill="#000000" stroke="none">
<path d="M998 11393 c-8 -10 -20 -37 -27 -60 -6 -24 -20 -47 -31 -53 -10 -6
-60 -13 -111 -17 -98 -7 -129 -22 -129 -64 0 -54 54 -91 137 -93 31 0 52 -5
50 -11 -2 -5 -46 -138 -97 -295 -51 -157 -98 -296 -104 -310 -10 -21 -22 -26
-71 -33 -85 -12 -105 -22 -105 -51 0 -26 38 -63 75 -72 l22 -6 -29 -91 c-16
-51 -47 -139 -69 -197 -22 -58 -53 -143 -68 -190 -16 -47 -38 -102 -51 -123
-18 -30 -21 -48 -18 -87 6 -63 38 -110 106 -157 45 -31 63 -38 117 -41 81 -5
142 15 238 77 129 84 304 246 327 301 15 37 7 62 -17 53 -10 -4 -90 -47 -178
-96 -172 -97 -304 -162 -347 -172 -41 -10 -39 16 10 155 24 69 80 233 124 365
44 132 87 246 96 253 9 6 33 12 54 12 20 0 57 6 80 14 24 8 86 22 138 31 52 9
106 22 120 30 14 7 47 17 74 22 28 4 54 15 60 25 18 30 36 30 -328 -6 -87 -9
-160 -15 -162 -13 -5 4 233 648 243 658 4 4 49 15 98 24 50 9 110 23 135 30
25 8 92 23 150 35 58 11 139 31 180 44 41 13 98 29 125 35 28 7 56 18 64 26
18 18 6 48 -16 41 -10 -2 -49 -7 -88 -11 -90 -8 -509 -53 -555 -60 -31 -4 -37
-1 -52 25 -32 57 -138 90 -170 53z"/>
<path d="M7475 11389 c-51 -82 -145 -288 -252 -553 -151 -375 -142 -355 -171
-362 -89 -19 -112 -37 -93 -73 5 -9 22 -23 38 -31 15 -8 29 -15 31 -16 2 -1
-28 -100 -67 -220 -94 -296 -111 -355 -111 -395 0 -67 81 -148 134 -135 27 7
41 34 61 123 8 38 42 154 74 258 33 105 71 229 86 277 32 110 36 112 233 138
81 11 159 23 175 26 15 4 27 4 27 2 0 -6 -117 -314 -183 -483 -75 -192 -127
-357 -127 -403 0 -95 124 -151 164 -74 18 35 180 462 216 572 34 101 141 361
164 395 26 40 57 54 141 66 87 12 115 22 115 43 0 11 -14 13 -64 9 -35 -3 -80
-3 -99 1 l-36 7 15 42 c8 23 60 129 116 237 56 107 111 222 124 255 12 33 27
74 34 91 8 17 10 42 6 58 -10 39 -65 95 -110 110 -39 14 -76 11 -76 -5 0 -5
-36 -91 -81 -191 -103 -230 -172 -392 -210 -490 -46 -119 -56 -128 -142 -128
-40 -1 -103 -5 -142 -10 -38 -6 -92 -13 -119 -17 l-48 -6 15 29 c8 16 27 68
41 116 26 85 57 160 165 395 28 62 51 118 51 125 0 7 16 39 36 72 42 66 40 93
-7 129 -33 24 -113 35 -124 16z"/>
<path d="M2402 11284 c-74 -37 -150 -124 -209 -241 -77 -149 -169 -371 -225
-539 l-51 -152 -56 57 c-94 95 -155 112 -232 63 -98 -62 -166 -171 -229 -367
-34 -104 -42 -145 -43 -205 -1 -141 56 -215 159 -207 60 4 131 50 249 159 l70
65 0 -136 c0 -126 2 -140 26 -186 43 -84 119 -117 187 -81 57 30 158 151 281
334 50 74 161 222 201 265 4 4 5 -39 3 -95 -4 -85 -1 -109 14 -138 26 -51 56
-62 121 -45 79 21 165 98 302 272 35 45 66 80 68 78 3 -2 -3 -22 -12 -45 -57
-144 -8 -260 112 -260 60 0 115 31 197 114 l72 71 -1 -85 c-1 -70 3 -93 23
-133 31 -63 55 -78 122 -75 54 2 55 3 136 85 49 50 105 121 139 176 62 101
105 160 111 154 2 -2 -8 -48 -23 -102 -77 -291 51 -511 228 -389 40 28 163
183 215 271 15 26 55 100 89 163 41 79 65 114 75 110 8 -2 44 -6 82 -8 37 -2
67 -5 67 -6 0 -2 -27 -60 -60 -129 -33 -69 -60 -132 -60 -140 0 -9 -4 -19 -10
-22 -17 -11 -50 -136 -50 -191 0 -63 34 -142 72 -166 63 -41 105 -27 234 73
75 59 125 113 204 221 34 45 63 84 64 85 1 1 2 -28 2 -65 2 -134 60 -207 160
-199 60 4 131 50 249 159 l70 65 0 -136 c0 -126 2 -140 26 -186 43 -84 119
-117 187 -81 56 30 158 151 279 331 82 123 170 233 271 337 68 72 83 93 80
115 -5 42 -24 38 -83 -18 -72 -68 -134 -144 -293 -363 -169 -231 -218 -288
-245 -284 -34 5 -42 64 -29 188 20 172 51 342 72 385 11 22 54 83 96 135 41
52 79 104 84 115 5 11 30 46 57 78 136 165 269 372 311 486 29 81 31 178 5
223 -26 44 -77 68 -143 68 -118 0 -229 -92 -317 -267 -77 -149 -169 -371 -225
-539 l-51 -152 -56 57 c-94 95 -155 112 -232 63 -57 -36 -110 -99 -157 -182
-41 -75 -73 -120 -227 -320 -62 -80 -117 -155 -123 -167 -14 -25 -128 -113
-148 -113 -8 0 -14 10 -14 24 0 29 101 294 160 420 51 109 51 143 0 168 -21
11 -58 18 -94 18 -79 0 -136 18 -136 42 0 24 37 98 49 98 17 0 31 60 20 82 -6
11 -13 17 -16 14 -3 -2 -17 0 -31 5 -40 15 -104 -13 -136 -60 -42 -60 -51
-105 -31 -158 l17 -44 -62 -97 c-153 -239 -274 -392 -310 -392 -29 0 -33 48
-14 152 9 51 18 110 20 131 4 51 18 92 71 209 l44 98 -17 35 c-21 45 -65 69
-109 61 -19 -4 -55 -26 -83 -51 l-49 -44 -17 55 c-11 36 -32 70 -60 100 -38
39 -47 44 -88 44 -37 0 -58 -8 -121 -51 -85 -56 -124 -106 -189 -246 -35 -74
-54 -100 -149 -195 -60 -60 -115 -108 -122 -105 -20 7 -10 88 23 178 16 46 30
91 30 101 0 10 8 35 19 56 48 95 30 142 -54 142 -59 0 -95 -32 -185 -164 -82
-121 -217 -285 -256 -313 -74 -52 -103 -32 -80 57 8 29 20 56 27 61 8 5 10 9
4 9 -6 0 -6 3 1 8 6 4 25 45 43 92 40 105 74 174 106 219 14 19 30 52 37 73
10 35 9 41 -9 60 -14 13 -39 22 -71 26 -44 4 -52 1 -84 -26 -19 -17 -50 -62
-69 -99 -19 -37 -49 -90 -66 -116 -18 -27 -33 -54 -33 -61 0 -6 -35 -53 -77
-103 -43 -50 -140 -175 -215 -279 -173 -237 -224 -296 -251 -292 -33 5 -42 64
-29 188 20 172 51 342 72 385 11 22 54 83 96 135 41 52 79 104 84 115 5 11 30
46 57 78 136 165 269 372 311 486 29 81 31 178 5 223 -41 71 -155 90 -251 42z
m152 -90 c23 -22 20 -107 -5 -181 -32 -96 -178 -337 -305 -505 -23 -31 -50
-69 -58 -85 -8 -15 -26 -41 -40 -58 l-25 -30 26 85 c119 395 273 731 356 777
29 16 33 16 51 -3z m3710 0 c23 -22 20 -107 -5 -181 -32 -96 -178 -337 -305
-505 -23 -31 -50 -69 -58 -85 -8 -15 -26 -41 -40 -58 l-25 -30 26 85 c119 395
273 731 356 777 29 16 33 16 51 -3z m-2398 -709 c8 -13 13 -29 10 -34 -4 -6 1
-40 11 -76 20 -77 28 -58 -102 -242 -90 -127 -164 -213 -182 -213 -21 0 -23
32 -9 118 33 202 171 472 241 472 8 0 22 -11 31 -25z m-2057 -115 c27 -14 81
-103 81 -131 -1 -19 -27 -151 -43 -216 -5 -19 -59 -73 -68 -68 -4 3 -20 -10
-36 -28 -15 -18 -57 -56 -92 -85 -47 -40 -70 -52 -90 -50 -26 3 -26 4 -24 73
2 86 35 191 107 340 76 159 111 194 165 165z m3710 0 c27 -14 81 -103 81 -131
-1 -19 -27 -151 -43 -216 -5 -19 -59 -73 -68 -68 -4 3 -20 -10 -36 -28 -15
-18 -57 -56 -92 -85 -47 -40 -70 -52 -90 -50 -26 3 -26 4 -24 73 2 86 35 191
107 340 76 159 111 194 165 165z"/>
<path d="M12904 11291 c-86 -39 -164 -131 -236 -281 -84 -173 -171 -387 -217
-535 -17 -55 -33 -105 -36 -111 -2 -6 -32 17 -68 51 -78 76 -124 95 -189 76
-54 -17 -141 -105 -185 -187 -26 -49 -57 -82 -160 -171 -118 -102 -187 -153
-205 -153 -5 0 -8 10 -8 23 0 25 44 190 56 209 6 10 5 11 -8 1 -8 -7 -23 -31
-33 -53 -10 -22 -20 -38 -23 -36 -10 10 103 206 152 264 91 107 104 162 57
239 -27 43 -69 51 -118 23 -45 -25 -226 -248 -315 -387 -56 -87 -78 -110 -78
-80 1 61 34 201 60 250 16 31 30 63 30 70 0 7 20 37 45 66 52 61 55 81 19 110
-27 21 -106 29 -131 13 -6 -4 -20 -32 -31 -62 -11 -30 -46 -125 -77 -210 -36
-99 -59 -181 -64 -227 -8 -69 -13 -78 -84 -180 -86 -122 -163 -205 -186 -201
-23 5 -26 76 -7 193 25 153 33 179 82 286 50 109 51 133 9 174 -37 38 -72 42
-122 15 -24 -13 -55 -36 -69 -52 -21 -26 -25 -28 -30 -11 -22 68 -68 144 -98
162 -54 34 -100 28 -177 -24 -89 -60 -127 -105 -184 -223 -47 -95 -50 -99
-176 -207 -71 -60 -144 -118 -162 -128 l-32 -17 -3 37 c-1 22 10 76 26 126 31
96 28 100 -17 17 -49 -89 -36 -47 19 58 27 54 77 131 111 172 34 41 65 85 70
98 23 61 -2 146 -52 173 -31 16 -87 -3 -126 -43 -43 -46 -240 -305 -288 -380
-43 -67 -72 -89 -62 -46 4 14 11 58 17 99 7 48 23 99 45 145 19 39 35 74 35
79 0 4 18 27 40 51 47 52 51 84 14 113 -28 22 -97 28 -124 11 -8 -5 -22 -30
-31 -57 -9 -26 -42 -115 -73 -198 -31 -82 -61 -178 -67 -213 -9 -62 -16 -72
-138 -231 -70 -91 -133 -176 -139 -188 -14 -25 -128 -113 -148 -113 -8 0 -14
10 -14 24 0 29 101 294 160 420 51 109 51 143 0 168 -21 11 -58 18 -94 18 -79
0 -136 18 -136 42 0 24 37 98 49 98 17 0 31 60 20 82 -6 11 -13 17 -16 14 -3
-2 -17 0 -31 5 -85 32 -205 -110 -173 -203 10 -28 7 -36 -33 -92 -24 -34 -80
-106 -125 -161 -44 -55 -81 -105 -81 -111 0 -7 -42 -52 -94 -102 -105 -100
-191 -151 -224 -133 -29 15 -34 67 -17 162 9 46 19 107 23 134 10 66 14 71 70
89 106 35 263 171 312 268 37 75 41 142 9 182 -52 66 -170 89 -259 49 -99 -44
-223 -212 -282 -383 -25 -72 -68 -308 -68 -372 0 -89 59 -172 155 -217 101
-47 195 -6 308 136 29 35 87 108 130 160 42 53 109 138 149 190 61 80 75 93
92 87 12 -4 51 -9 89 -11 37 -3 67 -6 67 -7 0 -2 -27 -60 -60 -129 -33 -69
-60 -132 -60 -140 0 -9 -4 -19 -10 -22 -17 -11 -50 -136 -50 -191 0 -63 34
-142 72 -166 63 -41 105 -28 235 74 80 63 136 126 240 270 l85 117 28 -21 c21
-15 37 -19 62 -14 29 5 40 18 98 114 36 59 81 125 101 147 20 22 60 72 89 110
71 94 74 96 54 50 -9 -22 -20 -42 -24 -45 -14 -9 -50 -90 -64 -142 -7 -29 -17
-94 -21 -144 -9 -118 4 -148 87 -204 33 -22 70 -40 82 -40 38 0 113 56 173
130 l58 71 5 -88 c4 -72 10 -96 33 -135 31 -53 42 -58 112 -56 49 1 52 4 136
88 47 48 103 116 124 151 60 99 116 181 122 176 2 -3 -8 -54 -23 -113 -21 -88
-26 -123 -21 -185 12 -185 121 -276 238 -201 50 32 152 156 222 270 43 69 45
71 66 56 12 -9 36 -14 54 -12 29 3 39 14 110 128 43 69 95 143 116 165 20 22
56 66 79 98 24 31 45 57 47 57 8 0 -16 -54 -30 -70 -27 -30 -65 -132 -75 -198
-13 -90 -12 -188 1 -215 31 -62 136 -125 186 -113 16 4 60 40 104 85 l76 78
-5 -98 c-4 -86 -2 -103 17 -143 28 -57 73 -86 134 -86 56 0 131 47 245 155
l78 74 0 -132 c-1 -116 2 -137 21 -177 38 -78 77 -110 134 -110 75 0 151 75
314 311 140 201 275 368 262 324 -14 -46 -37 -204 -37 -248 0 -88 60 -171 155
-216 101 -47 195 -6 308 136 29 35 87 108 131 161 173 214 248 320 241 341 -6
21 -30 27 -51 13 -7 -4 -39 -43 -71 -87 -33 -44 -87 -114 -121 -155 -34 -41
-62 -80 -62 -86 0 -7 -42 -52 -94 -102 -105 -100 -191 -151 -224 -133 -29 15
-34 67 -17 162 9 46 19 107 23 134 10 66 14 71 70 89 106 35 263 171 312 268
37 75 41 142 9 182 -52 66 -170 89 -259 49 -79 -35 -165 -137 -244 -288 -20
-38 -68 -106 -107 -150 -39 -44 -143 -177 -230 -295 -174 -237 -211 -280 -239
-280 -26 0 -35 32 -33 125 3 106 49 388 72 441 11 23 50 82 88 131 38 48 86
113 106 144 20 30 60 82 89 115 110 126 255 373 284 484 28 110 1 196 -72 226
-47 20 -131 17 -180 -5z m147 -97 c34 -41 4 -180 -64 -304 -42 -76 -186 -296
-252 -386 -30 -40 -55 -77 -55 -81 0 -5 -16 -26 -35 -48 l-34 -40 56 170 c111
340 219 578 299 662 44 46 64 52 85 27z m-4528 -686 c-3 -66 -12 -86 -77 -156
-43 -47 -156 -136 -163 -128 -7 6 64 173 103 243 19 34 50 79 70 99 33 36 36
37 52 20 13 -13 16 -31 15 -78z m5010 0 c-3 -66 -12 -86 -77 -156 -43 -47
-156 -136 -163 -128 -7 6 64 173 103 243 19 34 50 79 70 99 33 36 36 37 52 20
13 -13 16 -31 15 -78z m-2899 -17 c12 -13 15 -27 11 -42 -4 -12 -3 -19 1 -16
5 3 9 -7 10 -21 1 -15 4 -47 8 -72 8 -44 7 -47 -74 -162 -100 -144 -191 -253
-210 -253 -25 0 -15 144 16 240 38 116 123 282 162 316 38 34 53 36 76 10z
m1666 -121 c11 -6 33 -31 51 -56 30 -43 31 -50 25 -108 -3 -34 -13 -87 -21
-117 -9 -30 -17 -60 -18 -66 -4 -19 -59 -73 -68 -68 -4 3 -22 -12 -39 -32 -51
-57 -146 -133 -168 -133 -39 0 -47 24 -33 108 16 94 48 186 111 318 72 150
106 183 160 154z"/>
<path d="M10880 10922 c0 -6 -25 -55 -55 -109 -55 -99 -75 -156 -57 -167 26
-16 242 170 242 209 0 39 -31 66 -83 72 -31 4 -47 2 -47 -5z"/>
<path d="M14205 10699 c-38 -5 -101 -10 -139 -13 -75 -5 -110 -23 -135 -68 -8
-14 -11 -34 -7 -49 9 -34 69 -69 119 -69 37 0 218 44 272 66 15 6 12 -2 -14
-32 -44 -52 -201 -204 -210 -204 -4 0 -32 -18 -62 -41 -30 -22 -80 -54 -111
-71 -68 -36 -90 -75 -67 -117 20 -36 63 -38 114 -7 133 82 204 102 251 72 31
-21 54 -72 54 -121 0 -44 -6 -48 -342 -220 -433 -223 -529 -289 -591 -404 -25
-45 -28 -58 -22 -104 17 -126 81 -172 257 -184 104 -7 192 8 263 45 27 15 57
27 66 28 23 2 40 14 34 24 -3 4 20 27 51 50 64 48 199 214 264 324 24 41 46
73 48 71 2 -2 -17 -45 -41 -97 -64 -131 -150 -231 -287 -331 -24 -17 -24 -17
9 0 54 28 209 180 274 268 69 94 161 278 176 354 6 30 9 69 5 88 -8 42 -2 49
127 154 165 134 214 192 178 214 -13 9 -65 -25 -205 -132 -59 -46 -111 -83
-115 -83 -9 0 -44 61 -41 71 0 4 -10 17 -23 29 -14 13 -25 20 -25 17 0 -4 -11
0 -24 8 -13 9 -51 21 -85 28 l-61 13 92 90 c51 49 120 111 153 136 33 25 76
63 96 85 86 90 52 124 -124 122 -56 -1 -133 -6 -172 -10z m-28 -933 c-52 -109
-109 -189 -216 -300 -101 -104 -219 -199 -293 -234 -52 -26 -159 -32 -184 -11
-45 37 -35 102 27 173 51 58 130 114 284 202 66 37 125 73 130 79 14 16 279
174 284 170 2 -3 -12 -38 -32 -79z"/>
</g>
</svg>
